<svg id="Layer_1" data-name="Layer 1" xmlns="http://www.w3.org/2000/svg" viewBox="0 0 44.51 44.51"><defs><style>.cls-1{fill:#0071bc;stroke:#fff;stroke-width:1.72px;}.cls-1,.cls-3{stroke-miterlimit:10;}.cls-2,.cls-3{fill:none;}.cls-3{stroke:#000;stroke-width:1.53px;}</style></defs><title>logo</title><rect class="cls-1" x="0.86" y="0.86" width="42.78" height="42.78" rx="6.99" ry="6.99"/><path d="M252.08,393.8v1.05l-3.45,1.1V393.8l.29,0h2.87Z" transform="translate(-227.98 -366.35)"/><polygon points="24.09 30.09 24.09 31.78 20.65 32.88 20.65 31.19 24.09 30.09"/><polygon class="cls-2" points="24.09 28.5 24.09 30.09 20.65 31.19 20.65 29.6 24.09 28.5"/><polygon points="24.09 33.38 24.09 34.57 20.65 35.67 20.65 34.48 24.09 33.38"/><polygon class="cls-2" points="24.09 31.78 24.09 33.38 20.65 34.48 20.65 32.88 24.09 31.78"/><polygon points="24.09 36.17 24.09 38.61 20.65 38.61 20.65 37.26 24.09 36.17"/><polygon class="cls-2" points="24.09 34.57 24.09 36.17 20.65 37.26 20.65 35.67 24.09 34.57"/><polygon class="cls-2" points="24.09 28.5 24.09 30.09 20.65 31.19 20.65 29.6 24.09 28.5"/><polygon class="cls-2" points="24.09 34.57 24.09 36.17 20.65 37.26 20.65 35.67 24.09 34.57"/><polygon class="cls-2" points="24.09 31.78 24.09 33.38 20.65 34.48 20.65 32.88 24.09 31.78"/><rect class="cls-3" x="14.86" y="5.9" width="14.88" height="7.1" rx="2.32" ry="2.32"/><rect class="cls-3" x="14.62" y="15.06" width="15.27" height="9.16" rx="2.13" ry="2.13"/><rect class="cls-3" x="18" y="13" width="8.6" height="2.02"/><line class="cls-3" x1="25.28" y1="24.22" x2="19.38" y2="24.22"/><path class="cls-3" d="M253.64,390.57c-.51,1.05-1,2.09-1.54,3.14h-3.45L247,390.57" transform="translate(-227.98 -366.35)"/></svg>