<svg xmlns="http://www.w3.org/2000/svg" viewBox="0 0 52 47.51"><defs><style>.cls-1{fill:#0071bc;}</style></defs><title>Asset 6</title><g id="Layer_2" data-name="Layer 2"><g id="Layer_1-2" data-name="Layer 1"><path class="cls-1" d="M0,4.93V33a4.93,4.93,0,0,0,4.93,4.93H47.07A4.93,4.93,0,0,0,52,33V4.93A4.93,4.93,0,0,0,47.07,0H4.93A4.93,4.93,0,0,0,0,4.93ZM46.08,27.21a7.42,7.42,0,0,1-7.42,7.42H13.33a7.42,7.42,0,0,1-7.42-7.42V10.7a7.42,7.42,0,0,1,7.42-7.42H38.66a7.42,7.42,0,0,1,7.42,7.42Z"/><rect class="cls-1" x="19.43" y="36.18" width="13.14" height="7.88"/><path class="cls-1" d="M11.51,42h29a1.75,1.75,0,0,1,1.75,1.75v3.75a0,0,0,0,1,0,0H9.76a0,0,0,0,1,0,0V43.75A1.75,1.75,0,0,1,11.51,42Z"/></g></g></svg>