<svg xmlns="http://www.w3.org/2000/svg" viewBox="0 0 35.26 41.53"><defs><style>.cls-1{fill:#0071bc;}</style></defs><title>Asset 3</title><g id="Layer_2" data-name="Layer 2"><g id="Layer_1-2" data-name="Layer 1"><path class="cls-1" d="M.07,31.35l0,10.18h35V31.25H24v7.17H11.42V31.35Z"/><line class="cls-1" x1="10.14" y1="6.05" x2="0.05" y2="6.05"/><line class="cls-1" x1="11.27" y1="41.49" x2="11.22" y2="41.53"/><line class="cls-1" x1="35.26" y1="6.05" x2="25.17" y2="6.05"/><polygon class="cls-1" points="21.47 27.31 21.47 30.64 13.84 36.27 13.84 32.95 21.47 27.31"/><polygon class="cls-1" points="21.47 22.21 21.47 23.04 13.84 28.67 13.84 25.28 18 22.21 21.47 22.21"/><rect class="cls-1" x="11.1" y="14.41" width="13.11" height="7.8"/><rect class="cls-1" x="15.4" y="12.72" width="4.5" height="1.69"/><rect class="cls-1" x="10.14" y="6.05" width="15.03" height="6.67"/><polygon class="cls-1" points="21.47 33.97 21.47 36.76 17.69 36.76 21.47 33.97"/><rect class="cls-1" y="1.38" width="35.26" height="4.67"/><path class="cls-1" d="M0,.06l.05,6H35.23V0H24V4.26H11.4V.06Z"/></g></g></svg>