<svg xmlns="http://www.w3.org/2000/svg" viewBox="0 0 52.17 38.23"><defs><style>.cls-1{fill:#0071bc;}</style></defs><title>Asset 1</title><g id="Layer_2" data-name="Layer 2"><g id="Layer_1-2" data-name="Layer 1"><rect class="cls-1" width="34.88" height="24.89" rx="3.08" ry="3.08"/><path class="cls-1" d="M52.17,26.21A.55.55,0,0,0,52,25.8a.51.51,0,0,0-.33-.11.15.15,0,0,1-.15-.15V23a.94.94,0,0,0-.08-.36c-.78-1.83-1.68-3.77-2.71-5.78s-2-3.63-2.94-5.25a.92.92,0,0,0-.41-.37l-9.22-4a.14.14,0,0,0-.21.13V25.69a.16.16,0,0,1-.15.16H1.32A1.09,1.09,0,0,0,.23,27v.95A1.1,1.1,0,0,0,1.33,29H3.77a.16.16,0,0,1,.16.16v1.23A1.09,1.09,0,0,0,5,31.47H9.35a.16.16,0,0,1,.15.16v.77a1.09,1.09,0,0,0,1.1,1.11h.81a5.09,5.09,0,0,1,10.14-.07c0,.05.26,0,.33,0H35a.16.16,0,0,0,.13-.08l.26-.45a.16.16,0,0,1,.13-.07l2.41-.06a.16.16,0,0,0,.13-.07,5.08,5.08,0,0,1,9.93.11l.06,0h.69a1.2,1.2,0,0,1,.71.23L51.53,32V31a.76.76,0,0,0,.41-.12,1,1,0,0,0,.23-.23C52.18,28.38,52.17,26.7,52.17,26.21ZM37.79,19.63c0-2.07,0-4.13,0-6.2a1,1,0,0,1,1.05-1l5.35.1a1.11,1.11,0,0,1,1,.6c1.61,3.21,2.72,6.64,4.4,9.84C45.66,21.92,41.73,20.66,37.79,19.63Z"/><path class="cls-1" d="M16.53,29.57a4.33,4.33,0,1,0,4.33,4.33A4.33,4.33,0,0,0,16.53,29.57Zm0,6.45a2.12,2.12,0,1,1,2.12-2.12A2.12,2.12,0,0,1,16.53,36Z"/><path class="cls-1" d="M43,29.57a4.33,4.33,0,1,0,4.34,4.33A4.33,4.33,0,0,0,43,29.57ZM43,36a2.12,2.12,0,1,1,2.12-2.12A2.12,2.12,0,0,1,43,36Z"/></g></g></svg>