<svg xmlns="http://www.w3.org/2000/svg" viewBox="0 0 53.05 41.53"><defs><style>.cls-1{fill:#0071bc;}</style></defs><title>Asset 2</title><g id="Layer_2" data-name="Layer 2"><g id="Layer_1-2" data-name="Layer 1"><path class="cls-1" d="M53.05,0V41.53H0V0H10.79V1.17L14.93,4.4a4.3,4.3,0,0,0,2.64.95h3.88c.4,0,.74.45.74,1V8.07c0,.55-.34,1-.74,1H17.58a4.3,4.3,0,0,0-2.65.95l-4.14,3.23v1.18H7.29V26.36H45.8V14.47H42.3V13.29l-4.14-3.23a4.3,4.3,0,0,0-2.64-1H31.64c-.41,0-.74-.45-.74-1V6.39c0-.55.33-1,.74-1h3.88a4.3,4.3,0,0,0,2.64-.95L42.3,1.21V0Z"/></g></g></svg>