<svg xmlns="http://www.w3.org/2000/svg" viewBox="0 0 44.87 41.93"><defs><style>.cls-1{fill:#0071bc;}</style></defs><title>Asset 4</title><g id="Layer_2" data-name="Layer 2"><g id="Layer_1-2" data-name="Layer 1"><path class="cls-1" d="M39.11,27.17l-3.2,3.34,0,2.43-1.36.4-.41,3L32.5,33.67l-1.25,1.25-7.34-6.46.25,4.22L13.74,30.44l3.67,3.05H0L12.56,35.8,4.08,39H22.37l.95,2.86,3-2.57,4,2.65,1.95-3.79,5.5,3.82L35.8,36l9.07-1.35-5.61-1.91Z"/><path class="cls-1" d="M31.4,32.68l3.45-.88-2.53-9.51-1.66,0a18,18,0,0,0-1-2.16,16,16,0,0,0-3.3-4.3A14.77,14.77,0,0,0,24.6,14.5l1.11-1.21-.66-.51L24,14l-.84-.59,1-1.43-.55-.41-1,1.44-.92-.63,1-1.47-.55-.37-1,1.4-.77-.51L21.3,10,18.62,8q-3.26-2.45-6.5-4.92L9,3.71,4,0,2.24,2.17,6,4.77,6.5,7.56,10.69,10l.77,2.32,9.29,5,3.3-.15a11.54,11.54,0,0,1,2.54,2.13A11.2,11.2,0,0,1,28.75,23l-1.46,1.24Z"/><path class="cls-1" d="M20.57,17.88l-5.88-2.94v1.51L19.1,19.5Z"/></g></g></svg>